HIERARCHY
ROOT Hips
{
	OFFSET 0.000000 0.000000 0.000000
	CHANNELS 6 Xposition Yposition Zposition Yrotation Xrotation Zrotation
	JOINT Chest
	{
		OFFSET 0.000000 -0.009281 11.569106
		CHANNELS 3 Yrotation Xrotation Zrotation
		JOINT Chest2
		{
			OFFSET -0.000000 0.016865 9.269641
			CHANNELS 3 Yrotation Xrotation Zrotation
			JOINT Chest3
			{
				OFFSET -0.000000 0.000001 8.374491
				CHANNELS 3 Yrotation Xrotation Zrotation
				JOINT Chest4
				{
					OFFSET -0.000000 0.000001 8.374493
					CHANNELS 3 Yrotation Xrotation Zrotation
					JOINT Neck
					{
						OFFSET -0.000000 0.000002 12.152554
						CHANNELS 3 Yrotation Xrotation Zrotation
						JOINT Head
						{
							OFFSET -0.000000 0.040101 7.802319
							CHANNELS 3 Yrotation Xrotation Zrotation
							End Site
							{
								OFFSET -0.000000 0.020947 14.853096
							}
						}
					}
					JOINT RightCollar
					{
						OFFSET 2.894404 0.000001 6.791374
						CHANNELS 3 Yrotation Xrotation Zrotation
						JOINT RightShoulder
						{
							OFFSET 13.574684 0.000001 0.000000
							CHANNELS 3 Yrotation Xrotation Zrotation
							JOINT RightElbow
							{
								OFFSET 23.923903 0.000002 0.000000
								CHANNELS 3 Yrotation Xrotation Zrotation
								JOINT RightWrist
								{
									OFFSET 19.846718 0.012767 0.000000
									CHANNELS 3 Yrotation Xrotation Zrotation
									End Site
									{
										OFFSET 14.973145 0.000001 0.000000
									}
								}
							}
						}
					}
					JOINT LeftCollar
					{
						OFFSET -2.894404 0.000001 6.791374
						CHANNELS 3 Yrotation Xrotation Zrotation
						JOINT LeftShoulder
						{
							OFFSET -13.574684 -0.000001 0.000000
							CHANNELS 3 Yrotation Xrotation Zrotation
							JOINT LeftElbow
							{
								OFFSET -23.923903 -0.000002 0.000000
								CHANNELS 3 Yrotation Xrotation Zrotation
								JOINT LeftWrist
								{
									OFFSET -19.846718 0.012763 0.000000
									CHANNELS 3 Yrotation Xrotation Zrotation
									End Site
									{
										OFFSET -14.973145 -0.000001 0.000000
									}
								}
							}
						}
					}
				}
			}
		}
	}
	JOINT RightHip
	{
		OFFSET 9.469263 0.004643 0.045487
		CHANNELS 3 Yrotation Xrotation Zrotation
		JOINT RightKnee
		{
			OFFSET 0.000000 0.002661 -40.478676
			CHANNELS 3 Yrotation Xrotation Zrotation
			JOINT RightAnkle
			{
				OFFSET 0.000000 0.049106 -35.224068
				CHANNELS 3 Yrotation Xrotation Zrotation
				JOINT RightToe
				{
					OFFSET -0.000001 12.539529 -6.151390
					CHANNELS 3 Yrotation Xrotation Zrotation
					End Site
					{
						OFFSET -0.000001 5.044994 -1.291870
					}
				}
			}
		}
	}
	JOINT LeftHip
	{
		OFFSET -9.469263 0.004641 0.045487
		CHANNELS 3 Yrotation Xrotation Zrotation
		JOINT LeftKnee
		{
			OFFSET 0.000000 0.002661 -40.478676
			CHANNELS 3 Yrotation Xrotation Zrotation
			JOINT LeftAnkle
			{
				OFFSET 0.000000 0.049106 -35.224068
				CHANNELS 3 Yrotation Xrotation Zrotation
				JOINT LeftToe
				{
					OFFSET -0.000001 12.539529 -6.151390
					CHANNELS 3 Yrotation Xrotation Zrotation
					End Site
					{
						OFFSET -0.000001 5.044994 -1.291870
					}
				}
			}
		}
	}
}
MOTION
Frames: 8
Frame Time: 0.016667
13.149558 7.338534 83.139542 -4.737119 0.829589 -101.804277 3.646590 -1.771662 2.905914 1.661778 -0.758525 1.231318 1.661778 -0.758524 1.231316 1.247849 -0.565553 0.925545 -2.223252 -13.104876 10.815697 0.156186 11.432917 19.593012 4.350775 3.853610 2.198904 78.837172 -4.380973 26.974318 73.206009 -20.459726 56.095927 -43.901078 52.570907 -26.498807 -7.778301 2.953713 -13.268936 -78.369099 34.022501 -78.303105 -47.752246 26.665902 -74.675804 51.298269 40.406545 25.272352 -2.498535 -9.672345 -5.329112 1.472225 -0.574011 -6.970474 -0.304274 5.538343 1.765016 0.044952 0.094814 0.022382 -1.960232 -8.320735 0.951941 1.034553 -0.607653 -0.445440 -4.982418 2.742384 -3.743924 0.229138 -0.039219 0.000816 
13.158558 7.371807 83.142410 -4.766748 0.837807 -101.728373 3.655618 -1.774600 2.906963 1.665825 -0.759986 1.230978 1.665825 -0.759987 1.230978 1.250887 -0.566642 0.925299 -2.244963 -13.092522 10.834005 0.124308 11.456940 19.620185 4.347940 3.851902 2.194712 78.904388 -4.184083 26.935602 73.360057 -20.550767 55.971812 -41.521833 53.193899 -25.612950 -7.820867 2.951573 -13.249776 -78.832247 33.902522 -78.357235 -47.776292 26.270320 -74.727290 50.510243 41.732623 26.064709 -2.531927 -9.701906 -5.372160 1.485700 -0.592860 -6.988469 -0.301500 5.546080 1.766279 0.051015 0.096395 0.023081 -1.986439 -8.336377 0.953581 1.037044 -0.617306 -0.452950 -5.025452 2.703346 -3.806388 0.233525 -0.037511 0.000994 
13.168166 7.404737 83.144623 -4.809894 0.842398 -101.649368 3.670536 -1.784901 2.903063 1.672218 -0.764243 1.228778 1.672218 -0.764242 1.228780 1.255687 -0.569827 0.923669 -2.272215 -13.089210 10.852422 0.080705 11.465088 19.644358 4.332178 3.841539 2.197151 78.948203 -4.022251 26.892499 73.291584 -20.529131 55.815886 -38.636676 53.730926 -24.392390 -7.845099 2.912866 -13.235931 -79.181024 33.794769 -78.333753 -48.107625 26.152113 -74.936874 49.597077 42.990986 26.907899 -2.563285 -9.746595 -5.428489 1.497336 -0.612080 -7.001489 -0.298880 5.555119 1.767365 0.057510 0.097550 0.023587 -2.005401 -8.366417 0.964626 1.031636 -0.628215 -0.463691 -5.065539 2.668335 -3.878407 0.235969 -0.038906 0.001661 
13.175625 7.432845 83.146759 -4.862746 0.844073 -101.565733 3.681668 -1.796904 2.890507 1.676279 -0.769606 1.222485 1.676280 -0.769606 1.222484 1.258736 -0.573859 0.918968 -2.291650 -13.092302 10.871202 0.050999 11.460264 19.671698 4.318355 3.843981 2.187580 78.922993 -3.856599 26.818898 73.379379 -20.293774 55.494095 -35.132280 54.325525 -22.914719 -7.859894 2.860757 -13.224547 -79.518299 33.731910 -78.316445 -48.449237 26.171917 -75.068758 48.784018 43.781127 27.563449 -2.582313 -9.798223 -5.468624 1.499353 -0.636513 -7.026573 -0.300553 5.567403 1.739827 0.065096 0.098705 0.024276 -2.022927 -8.399606 0.969559 1.025587 -0.649974 -0.458121 -5.106429 2.641755 -3.924203 0.238252 -0.043768 0.003545 
13.178221 7.459867 83.149452 -4.925097 0.842646 -101.481284 3.691363 -1.814201 2.873540 1.679884 -0.777977 1.214169 1.679884 -0.777977 1.214168 1.261444 -0.580153 0.912757 -2.302350 -13.091891 10.887971 0.037477 11.460827 19.699148 4.312454 3.819887 2.175744 78.849910 -3.663017 26.782910 73.596928 -19.904308 54.990673 -31.472634 54.738260 -21.270666 -7.892569 2.812243 -13.239015 -79.891480 33.740554 -78.378265 -48.288450 26.323102 -74.711819 47.720466 44.183524 27.730406 -2.602150 -9.850361 -5.493055 1.504040 -0.672817 -7.061805 -0.307077 5.580096 1.718797 0.073900 0.101803 0.025611 -2.034263 -8.439827 0.958245 1.021718 -0.673672 -0.448589 -5.148162 2.614745 -3.980612 0.235746 -0.047926 0.003007 
13.176018 7.485943 83.152512 -4.995664 0.839619 -101.403311 3.697684 -1.842656 2.863608 1.682195 -0.791102 1.209220 1.682195 -0.791101 1.209218 1.263198 -0.590006 0.909085 -2.306857 -13.080541 10.896418 0.033976 11.481513 19.714503 4.323559 3.854306 2.159825 78.734732 -3.467987 26.720306 73.794928 -19.349776 54.339032 -27.091594 55.083713 -19.073435 -7.909681 2.793780 -13.250086 -80.315614 33.782966 -78.486141 -47.845274 26.683683 -73.992436 46.500607 44.987420 28.007838 -2.625177 -9.900824 -5.513885 1.515919 -0.722689 -7.102525 -0.315658 5.597612 1.711622 0.078776 0.103928 0.024990 -2.050677 -8.483436 0.928991 1.018625 -0.700490 -0.441151 -5.183361 2.590218 -3.990408 0.231754 -0.051864 0.003383 
13.169985 7.515586 83.156036 -5.071039 0.837489 -101.332044 3.702337 -1.874303 2.863487 1.683961 -0.805498 1.209447 1.683961 -0.805498 1.209445 1.264549 -0.600799 0.909296 -2.306598 -13.068433 10.895037 0.035723 11.503944 19.713282 4.323511 3.875254 2.131959 78.627020 -3.313727 26.634335 73.879861 -18.730752 53.744003 -22.690548 55.243728 -16.947467 -7.951868 2.860550 -13.257784 -80.668441 33.838034 -78.497137 -47.864306 27.257369 -73.395048 45.173000 46.074772 28.535096 -2.655009 -9.947069 -5.544097 1.529435 -0.782063 -7.140615 -0.320637 5.615836 1.718767 0.081865 0.105189 0.024451 -2.064347 -8.529079 0.891029 1.017530 -0.730764 -0.419882 -5.219198 2.559635 -4.070421 0.224130 -0.050802 0.001558 
13.159004 7.544632 83.160233 -5.143802 0.832978 -101.265279 3.714758 -1.910755 2.858545 1.688746 -0.822039 1.207125 1.688746 -0.822038 1.207125 1.268168 -0.613201 0.907608 -2.315806 -13.058480 10.897565 0.020860 11.523373 19.715396 4.301701 3.879720 2.136612 78.579981 -3.185579 26.562945 73.827979 -18.042653 53.234826 -18.493157 55.279419 -15.147095 -7.983415 2.892403 -13.242102 -81.043774 33.924375 -78.549313 -48.259610 27.870901 -72.956099 44.043136 46.725034 29.015282 -2.682474 -9.985725 -5.582249 1.545874 -0.844964 -7.166778 -0.329273 5.630398 1.725523 0.084048 0.108172 0.024364 -2.087156 -8.569008 0.863407 1.025776 -0.759220 -0.408806 -5.249662 2.529800 -4.114700 0.214972 -0.052242 0.000961 
